<svg width="17" height="16" viewBox="0 0 17 16" fill="none"
    xmlns="http://www.w3.org/2000/svg">
    <path d="M9.39388 0.0800045C9.26939 0.0266347 9.13534 -0.00088501 8.99988 -0.00088501C8.86443 -0.00088501 8.73038 0.0266347 8.60588 0.0800045L1.60588 3.08C1.42549 3.15685 1.27168 3.28503 1.16356 3.44861C1.05545 3.61218 0.997803 3.80393 0.997803 4C0.997803 4.19608 1.05545 4.38783 1.16356 4.5514C1.27168 4.71498 1.42549 4.84316 1.60588 4.92L4.24988 6.051C4.34802 5.94 4.46963 5.85221 4.60588 5.794L8.60588 4.08C8.72693 4.02606 8.85749 3.9967 8.98997 3.99365C9.12246 3.99061 9.25423 4.01392 9.37762 4.06224C9.50102 4.11057 9.61358 4.18293 9.70876 4.27514C9.80395 4.36735 9.87985 4.47755 9.93207 4.59935C9.98429 4.72115 10.0118 4.85211 10.0129 4.98463C10.0141 5.11714 9.98891 5.24857 9.93884 5.37126C9.88876 5.49396 9.8148 5.60548 9.72124 5.69934C9.62769 5.7932 9.51642 5.86753 9.39388 5.918L6.66688 7.08801L8.60688 7.919C8.73125 7.97223 8.86511 7.99968 9.00038 7.99968C9.13566 7.99968 9.26952 7.97223 9.39388 7.919L16.3939 4.919C16.5737 4.84187 16.7269 4.71369 16.8346 4.55034C16.9422 4.38699 16.9996 4.19565 16.9996 4C16.9996 3.80436 16.9422 3.61302 16.8346 3.44967C16.7269 3.28632 16.5737 3.15814 16.3939 3.081L9.39388 0.0810046V0.0800045ZM2.30988 7.39701L3.99988 8.12V12.222C3.65364 12.1433 3.30302 12.0852 2.94988 12.048C2.72203 12.0241 2.50931 11.9226 2.3473 11.7606C2.18529 11.5986 2.08383 11.3859 2.05988 11.158C1.92837 9.89892 2.01292 8.62662 2.30988 7.396V7.39701ZM8.29988 14.573C7.6239 13.9097 6.84774 13.357 5.99988 12.935V8.978L7.81788 9.75801C8.19138 9.91811 8.59352 10.0007 8.99988 10.0007C9.40625 10.0007 9.80839 9.91811 10.1819 9.75801L15.6899 7.39701C15.9886 8.62735 16.0732 9.89995 15.9399 11.159C15.9159 11.3869 15.8145 11.5996 15.6525 11.7616C15.4905 11.9236 15.2777 12.0251 15.0499 12.049C13.0324 12.261 11.1464 13.1508 9.69988 14.573C9.51296 14.7562 9.26164 14.8589 8.99988 14.8589C8.73813 14.8589 8.48681 14.7562 8.29988 14.573ZM4.99988 16C5.2651 16 5.51945 15.8946 5.70699 15.7071C5.89453 15.5196 5.99988 15.2652 5.99988 15V12.935C5.36388 12.619 4.69248 12.379 3.99988 12.222V15C3.99988 15.2652 4.10524 15.5196 4.29278 15.7071C4.48031 15.8946 4.73467 16 4.99988 16Z" fill="#429777"/>
</svg>
