<svg width="24" height="18" viewBox="0 0 24 18" fill="none"
    xmlns="http://www.w3.org/2000/svg">
    <path d="M23.1909 6.35783L19.7222 16.9825C19.6873 17.0896 19.6287 17.1875 19.5509 17.2688C19.473 17.3502 19.3778 17.413 19.2723 17.4525C19.1669 17.4921 19.0539 17.5073 18.9417 17.4972C18.8295 17.4871 18.7211 17.4518 18.6244 17.3941C18.6028 17.381 16.2056 16 11.9981 16C7.79062 16 5.39343 17.381 5.37 17.395C5.27335 17.4522 5.16508 17.487 5.05319 17.4968C4.94129 17.5066 4.82864 17.4911 4.72353 17.4515C4.61842 17.4119 4.52355 17.3492 4.44592 17.268C4.36828 17.1868 4.30987 17.0893 4.275 16.9825L0.808121 6.35502C0.738269 6.14227 0.732886 5.91362 0.79265 5.69783C0.852414 5.48203 0.974656 5.28873 1.144 5.14223C1.31334 4.99573 1.52223 4.90259 1.74438 4.8745C1.96653 4.84641 2.19202 4.88465 2.3925 4.98439L7.09781 7.32814L11.0278 0.797515C11.1288 0.630008 11.2714 0.491446 11.4418 0.395261C11.6121 0.299077 11.8044 0.248535 12 0.248535C12.1956 0.248535 12.3879 0.299077 12.5582 0.395261C12.7286 0.491446 12.8712 0.630008 12.9722 0.797515L16.9022 7.32814L21.6094 4.98439C21.8101 4.8845 22.0359 4.84632 22.2583 4.87467C22.4807 4.90303 22.6897 4.99664 22.8589 5.14369C23.0281 5.29075 23.15 5.48465 23.2091 5.70091C23.2682 5.91717 23.2618 6.14609 23.1909 6.35877V6.35783Z" fill="#229BE0"/>
</svg>
