<svg width="18" height="17" viewBox="0 0 18 17" fill="none"
    xmlns="http://www.w3.org/2000/svg">
    <path d="M9.00008 0.666656C4.39592 0.666656 0.666749 4.39582 0.666749 8.99999C0.665804 10.7494 1.21576 12.4547 2.2386 13.8739C3.26143 15.2931 4.7052 16.3542 6.36508 16.9067C6.78175 16.9792 6.93758 16.7292 6.93758 16.51C6.93758 16.3125 6.92675 15.6567 6.92675 14.9583C4.83342 15.3442 4.29175 14.4483 4.12508 13.9792C4.03092 13.7392 3.62508 13 3.27092 12.8017C2.97925 12.6458 2.56258 12.26 3.26008 12.25C3.91675 12.2392 4.38508 12.8542 4.54175 13.1042C5.29175 14.3642 6.49008 14.01 6.96842 13.7917C7.04175 13.25 7.26008 12.8858 7.50008 12.6775C5.64592 12.4692 3.70842 11.75 3.70842 8.56249C3.70842 7.65582 4.03092 6.90666 4.56258 6.32249C4.47925 6.11416 4.18758 5.25999 4.64592 4.11416C4.64592 4.11416 5.34342 3.89582 6.93758 4.96916C7.61597 4.78087 8.31689 4.68611 9.02092 4.68749C9.72925 4.68749 10.4376 4.78082 11.1042 4.96832C12.6976 3.88499 13.3959 4.11499 13.3959 4.11499C13.8542 5.26082 13.5626 6.11499 13.4792 6.32332C14.0101 6.90666 14.3334 7.64582 14.3334 8.56249C14.3334 11.7608 12.3859 12.4692 10.5317 12.6775C10.8334 12.9375 11.0942 13.4375 11.0942 14.2192C11.0942 15.3333 11.0834 16.2292 11.0834 16.5108C11.0834 16.7292 11.2401 16.9892 11.6567 16.9058C13.3109 16.3473 14.7483 15.2842 15.7667 13.8659C16.785 12.4477 17.3329 10.7459 17.3334 8.99999C17.3334 4.39582 13.6042 0.666656 9.00008 0.666656Z" fill="#DB6837"/>
</svg>
