<svg width="16" height="17" viewBox="0 0 16 17" fill="none"
    xmlns="http://www.w3.org/2000/svg">
    <path d="M13.6326 14.1329H11.2619V10.4202C11.2619 9.53486 11.2461 8.39517 10.0289 8.39517C8.79419 8.39517 8.60525 9.35979 8.60525 10.3557V14.1326H6.23463V6.49786H8.51044V7.54123H8.54232C8.77007 7.15179 9.09919 6.83142 9.49462 6.61424C9.89005 6.39706 10.337 6.29119 10.7878 6.30792C13.1906 6.30792 13.6336 7.88842 13.6336 9.94454L13.6326 14.1329ZM3.55963 5.45429C2.79982 5.45442 2.18375 4.83854 2.18363 4.07873C2.1835 3.31892 2.79932 2.70286 3.55913 2.70273C4.31894 2.70254 4.935 3.31842 4.93513 4.07823C4.93519 4.44311 4.79032 4.79307 4.53236 5.05113C4.27441 5.30919 3.92451 5.45421 3.55963 5.45429ZM4.745 14.1329H2.37182V6.49786H4.74494V14.1329L4.745 14.1329ZM14.8145 0.501042H1.18057C0.53619 0.493792 0.00775293 1.00998 -0.00012207 1.65436V15.3452C0.00750293 15.9899 0.535878 16.5065 1.1805 16.4998H14.8145C15.4605 16.5078 15.9909 15.9911 15.9999 15.3452V1.65329C15.9907 1.00767 15.4602 0.491542 14.8145 0.49998" fill="#0A66C2"/>
</svg>
